<?xml version="1.0" standalone="no"?>
<!DOCTYPE svg PUBLIC "-//W3C//DTD SVG 20010904//EN"
 "http://www.w3.org/TR/2001/REC-SVG-20010904/DTD/svg10.dtd">
<svg version="1.0" xmlns="http://www.w3.org/2000/svg"
 width="1280.000000pt" height="1232.000000pt" viewBox="0 0 1280.000000 1232.000000"
 preserveAspectRatio="xMidYMid meet">
<g transform="translate(0.000000,1232.000000) scale(0.100000,-0.100000)"
fill="#000000" stroke="none">
<path d="M11830 12303 c-25 -2 -794 -25 -1710 -53 -916 -27 -1708 -52 -1760
-55 -80 -5 -103 -11 -147 -36 -32 -18 -67 -29 -90 -29 -32 0 -69 -20 -223
-122 l-185 -123 -185 -290 -185 -290 -70 -7 c-39 -3 -302 -36 -585 -72 -658
-83 -1009 -126 -1445 -176 -192 -22 -521 -60 -730 -85 -209 -24 -499 -58 -645
-74 -818 -93 -1436 -164 -2842 -324 -249 -29 -376 -40 -398 -34 -29 7 -514
-28 -531 -39 -3 -2 -18 -21 -33 -43 -23 -33 -29 -54 -33 -119 -5 -71 -3 -84
17 -116 12 -20 39 -45 61 -56 47 -24 49 -29 85 -162 21 -81 33 -109 49 -116
18 -8 35 -78 142 -578 67 -313 186 -864 263 -1224 78 -360 154 -716 170 -790
16 -74 85 -398 154 -719 69 -321 126 -591 126 -600 1 -12 248 -114 1007 -416
553 -220 1008 -406 1010 -412 3 -7 -26 -61 -65 -121 -38 -59 -99 -155 -136
-214 l-67 -107 -52 -5 c-29 -3 -223 -11 -432 -17 -209 -6 -383 -14 -386 -18
-4 -3 -25 -105 -47 -226 -40 -217 -41 -221 -90 -303 -209 -347 -198 -820 28
-1152 110 -162 283 -282 448 -311 31 -6 93 -20 137 -32 53 -15 106 -22 158
-21 68 1 86 6 154 39 129 64 238 192 309 365 41 99 101 317 114 411 6 46 71
298 145 559 73 261 135 484 137 494 2 16 -17 26 -126 65 -71 25 -131 52 -134
59 -4 12 77 146 191 317 37 56 59 80 72 79 19 -1 4670 -1851 4725 -1879 14 -7
41 -16 60 -20 l35 -6 375 467 c206 257 385 473 397 481 13 9 23 21 23 28 0 23
504 642 508 623 2 -9 -31 -84 -73 -167 -362 -724 -686 -1670 -811 -2371 -9
-52 -21 -100 -26 -106 -6 -8 -96 -14 -279 -19 -263 -7 -271 -8 -279 -29 -13
-30 -92 -464 -88 -481 2 -10 25 3 75 40 40 30 75 55 78 55 12 0 3 -23 -31 -77
-52 -81 -91 -170 -122 -281 -25 -89 -27 -112 -27 -282 0 -163 3 -196 24 -275
62 -235 193 -431 369 -546 79 -52 159 -82 273 -103 41 -7 109 -24 152 -37 77
-23 78 -23 144 -5 95 25 158 60 226 125 66 62 119 135 165 227 30 60 46 74 81
74 14 0 51 118 215 696 109 383 196 698 193 700 -2 2 -144 54 -316 114 -302
106 -315 110 -396 110 -46 0 -86 4 -90 9 -14 24 108 534 204 851 232 767 609
1604 980 2181 62 96 554 661 629 722 211 171 449 306 543 307 37 0 89 -38 112
-83 l20 -38 -35 -37 c-19 -20 -53 -60 -76 -88 l-41 -51 79 -192 80 -192 3
-162 c3 -146 6 -170 31 -242 40 -116 80 -180 165 -266 89 -89 170 -133 282
-154 41 -7 92 -19 114 -25 22 -7 67 -10 100 -8 193 16 342 213 410 545 42 203
-2 418 -125 606 -60 91 -114 140 -196 178 l-61 28 -22 84 c-13 46 -27 90 -31
97 -7 11 -34 10 -152 -3 -203 -24 -182 -30 -226 61 -49 102 -140 196 -236 243
-61 29 -81 34 -165 37 -124 5 -204 -14 -343 -80 -60 -28 -111 -49 -114 -46 -5
6 42 64 287 351 126 148 127 149 134 210 3 34 14 74 23 89 11 19 13 30 5 40
-7 9 11 167 63 553 40 297 74 541 74 543 1 10 30 -1 30 -11 0 -14 -26 -198
-35 -249 -2 -16 0 -28 6 -28 6 0 249 127 540 283 390 208 531 287 534 302 3
11 34 283 70 605 36 322 70 606 76 632 7 31 7 53 1 65 -11 20 -432 2090 -432
2123 0 10 9 42 20 70 11 28 20 52 20 54 0 13 -313 287 -353 309 -51 28 -77 30
-217 20z m153 -416 c5 -13 -196 -524 -213 -541 -5 -5 -21 -4 -40 4 -32 13
-262 11 -2225 -20 -1215 -19 -1735 -23 -1735 -13 0 5 44 79 98 164 l97 154
110 73 c107 72 111 73 155 66 77 -13 601 -5 2113 31 802 19 1482 35 1512 35
50 0 56 2 70 30 16 31 49 41 58 17z m-966 -828 c34 -34 -21 -63 -492 -259 -82
-34 -162 -68 -176 -76 -78 -41 -333 -144 -340 -137 -10 10 13 449 24 460 5 4
194 11 420 14 227 3 444 6 483 7 39 1 75 -3 81 -9z m-1124 -94 c-9 -269 -23
-440 -38 -451 -20 -15 -760 -334 -774 -334 -6 0 -11 15 -11 33 0 72 78 809 87
818 9 9 219 15 538 14 l200 0 -2 -80z m-868 64 c8 -13 -73 -866 -85 -896 -5
-12 -26 -30 -47 -39 -35 -15 -56 -15 -293 1 -140 9 -259 21 -264 26 -11 10 36
858 49 896 3 9 56 13 197 16 106 1 248 3 315 5 77 1 124 -2 128 -9z m-757 -11
c9 -12 4 -118 -36 -746 -5 -73 -13 -136 -18 -141 -11 -11 -435 17 -448 30 -8
7 10 788 20 836 4 22 8 23 172 26 92 1 197 4 233 5 44 1 70 -2 77 -10z m-572
-9 c12 -20 -12 -828 -25 -842 -10 -10 -303 12 -315 24 -6 5 -5 160 2 406 11
352 14 399 29 411 22 16 299 17 309 1z m-555 -31 c6 -91 -20 -771 -30 -781
-10 -10 -908 -149 -936 -145 -18 3 -21 13 -27 98 -15 217 -30 702 -22 710 9 9
904 127 977 129 23 1 37 -4 38 -11z m4859 -24 c0 -14 -13 -107 -30 -207 -16
-100 -75 -508 -130 -907 -55 -399 -123 -885 -150 -1080 -27 -195 -55 -397 -61
-447 -14 -101 -22 -124 -39 -107 -7 7 -6 42 5 115 8 57 48 356 90 664 41 308
86 641 100 740 14 99 57 416 95 705 39 289 72 531 75 538 2 6 14 12 25 12 15
0 20 -7 20 -26z m-284 -56 c-48 -400 -136 -1002 -147 -1009 -7 -4 -33 -5 -58
-3 -26 3 -136 11 -245 19 -110 8 -204 19 -209 24 -20 20 42 743 66 768 16 17
557 252 581 252 17 1 18 -4 12 -51z m-5719 -60 c14 -22 42 -791 29 -805 -6 -6
-146 -31 -311 -56 l-300 -45 -257 26 c-141 15 -261 32 -267 37 -12 13 -77 702
-67 712 6 6 1068 138 1143 142 12 1 25 -5 30 -11z m-1287 -368 c40 -406 43
-451 34 -460 -5 -5 -147 5 -349 26 -187 19 -473 48 -634 64 -285 29 -310 34
-311 65 0 6 -11 81 -25 168 -14 87 -25 171 -25 187 0 34 -32 28 390 75 173 20
441 50 595 68 207 25 283 30 293 22 7 -7 20 -87 32 -215z m6260 133 c1 -66
-74 -649 -84 -660 -8 -9 -62 -8 -226 3 -118 8 -226 17 -239 20 l-24 5 7 207
c4 121 11 212 18 219 6 7 29 18 52 25 22 6 47 16 55 22 18 14 412 184 429 185
7 1 12 -11 12 -26z m-7707 -80 c10 -16 59 -364 53 -370 -6 -6 -287 20 -1134
107 -160 16 -290 34 -298 41 -8 6 -14 24 -14 40 0 24 5 29 33 34 32 5 370 46
702 85 99 11 270 31 380 44 221 26 272 30 278 19z m-1545 -195 c3 -14 -4 -18
-31 -18 -61 0 -92 23 -44 33 42 9 72 2 75 -15z m8558 -165 c-4 -93 -11 -172
-16 -177 -12 -12 -256 4 -276 18 -14 11 -15 25 -8 111 l9 99 130 57 c72 32
139 58 149 58 18 1 19 -6 12 -166z m-426 -57 c0 -67 -11 -97 -34 -94 -18 3
-22 11 -24 51 -3 52 9 77 39 77 15 0 19 -7 19 -34z m-8760 -22 c140 -14 259
-29 263 -33 14 -13 127 -705 117 -715 -12 -12 -764 -127 -804 -124 l-30 3 -73
335 c-71 328 -72 336 -56 368 15 30 15 36 0 86 -9 29 -17 56 -17 61 0 4 40 5
89 2 89 -6 91 -5 128 24 33 27 43 30 83 25 25 -4 160 -18 300 -32z m8568 -41
c-4 -21 -36 -29 -51 -14 -9 9 -8 14 3 21 25 16 52 12 48 -7z m-8028 -14 c74
-6 142 -15 150 -20 22 -11 143 -590 127 -605 -7 -7 -85 -22 -175 -35 -130 -19
-165 -21 -171 -11 -14 22 -115 657 -108 675 4 11 14 17 24 14 10 -3 79 -11
153 -18z m5480 -128 c0 -83 -4 -122 -12 -128 -19 -15 -920 78 -926 95 -2 6 -2
12 0 12 2 1 201 32 443 69 242 38 452 69 468 70 l27 1 0 -119z m470 101 l85
-7 0 -94 0 -94 -84 -43 c-79 -41 -86 -43 -145 -37 -33 3 -72 10 -85 15 l-24 9
7 126 c4 70 10 131 12 135 3 5 38 6 77 3 40 -4 110 -10 157 -13z m-5252 -43
c184 -18 340 -38 348 -44 17 -12 59 -374 45 -388 -14 -14 -645 -107 -655 -97
-5 5 -35 130 -66 277 -57 270 -60 300 -21 289 9 -3 166 -19 349 -37z m5650 16
c114 -9 213 -17 220 -20 13 -5 17 -80 6 -109 -3 -9 -32 -32 -64 -51 l-58 -35
-144 10 c-208 16 -188 4 -188 114 0 82 4 106 17 106 2 0 97 -7 211 -15z m379
-42 c4 -11 -26 -27 -35 -19 -2 3 -2 12 2 21 6 18 27 16 33 -2z m-5215 -57
c120 -12 220 -25 223 -28 11 -11 37 -210 28 -218 -13 -13 -545 -92 -554 -83
-11 11 -44 325 -36 347 6 14 15 16 64 11 32 -4 156 -16 275 -29z m6333 -7 c88
-7 165 -17 171 -23 9 -8 9 -149 2 -556 -5 -300 -12 -562 -16 -584 -6 -35 -14
-43 -87 -87 l-80 -48 -187 33 c-102 19 -191 37 -197 40 -8 5 -11 166 -11 549
l0 542 72 72 c84 85 63 81 333 62z m-5823 -45 c43 -3 82 -11 86 -18 16 -19 24
-106 12 -121 -11 -14 -206 -43 -216 -32 -4 4 -12 42 -19 84 -14 88 -8 107 34
99 14 -3 61 -8 103 -12z m6178 -26 c0 -57 -28 -564 -36 -657 -4 -50 -9 -69
-15 -60 -9 13 -2 718 6 747 3 6 14 12 25 12 17 0 20 -6 20 -42z m313 23 c54
-4 102 -12 108 -18 7 -7 5 -130 -6 -374 -14 -315 -18 -366 -33 -380 -28 -27
-272 -179 -288 -179 -8 0 -14 10 -14 23 0 75 51 920 55 928 7 11 46 11 178 0z
m-6092 -37 c139 -15 181 -26 143 -37 -45 -13 -297 -48 -310 -43 -14 6 -20 76
-7 89 9 9 10 9 174 -9z m6595 1 c115 -9 212 -19 217 -24 15 -15 -23 -308 -42
-324 -42 -36 -430 -277 -446 -277 -15 0 -16 11 -10 128 4 70 10 208 14 307 4
99 11 186 15 193 9 15 1 15 252 -3z m597 -44 c9 -1 17 -7 17 -13 0 -17 -209
-150 -225 -144 -17 6 -8 147 10 161 8 7 44 8 96 4 46 -4 92 -8 102 -8z m-2390
-526 c-27 -278 -54 -510 -59 -515 -10 -10 -514 76 -528 90 -6 6 5 31 27 64
l37 56 0 268 c0 244 2 270 18 284 9 9 69 42 132 73 63 31 125 66 138 78 32 29
265 128 276 117 6 -6 -10 -208 -41 -515z m-3867 464 c4 -7 22 -240 40 -518 51
-794 49 -751 30 -751 -21 0 -21 1 -56 365 -16 176 -41 435 -55 575 -14 140
-25 274 -25 298 0 40 1 42 29 42 17 0 33 -5 37 -11z m6559 -46 c-39 -319 -186
-1378 -193 -1385 -7 -7 -382 55 -402 67 -6 3 -10 23 -10 43 0 68 60 937 68
971 6 31 27 46 262 197 140 90 261 164 269 164 10 0 12 -12 6 -57z m-6710
-458 c25 -259 52 -544 61 -634 15 -157 15 -166 -2 -178 -10 -7 -26 -13 -37
-13 -43 0 -853 163 -865 175 -15 13 -19 50 -67 594 -24 274 -32 398 -25 405
18 18 863 145 877 132 8 -7 28 -178 58 -481z m784 451 c273 -28 426 -48 431
-55 4 -7 10 -90 14 -184 3 -95 11 -286 17 -426 6 -139 7 -257 2 -262 -16 -16
-867 -249 -876 -240 -10 10 -89 1189 -81 1203 8 13 41 10 493 -36z m796 -81
c216 -21 202 -16 209 -72 14 -110 47 -605 41 -611 -15 -15 -441 -129 -451
-121 -7 6 -14 82 -18 201 -4 106 -11 285 -16 398 -10 225 -8 234 44 225 17 -2
103 -12 191 -20z m-2597 -509 c26 -291 39 -473 33 -479 -13 -13 -137 11 -151
28 -14 17 -146 882 -136 892 9 10 144 32 181 30 l30 -2 43 -469z m3145 453
c64 -7 121 -17 126 -23 5 -6 4 -115 -1 -246 -7 -186 -11 -237 -23 -246 -21
-16 -255 -78 -263 -69 -9 8 -53 575 -47 594 4 10 17 12 48 7 23 -3 95 -11 160
-17z m-3538 -40 c14 -21 132 -824 123 -834 -8 -9 -595 101 -619 116 -6 3 -25
145 -44 315 -26 237 -31 312 -22 321 7 6 127 29 267 51 298 46 287 45 295 31z
m4039 -15 c6 -2 17 -17 23 -33 9 -26 16 -29 74 -35 36 -4 71 -11 78 -15 19
-12 5 -440 -15 -448 -21 -8 -307 46 -316 59 -4 7 -5 29 -3 48 2 19 7 122 10
229 3 107 8 198 12 204 5 9 107 2 137 -9z m-4714 -91 c0 -5 14 -129 30 -278
16 -148 30 -278 30 -287 0 -13 -8 -18 -27 -18 -48 0 -588 111 -600 123 -18 18
-87 357 -75 369 11 11 533 95 600 97 23 1 42 -2 42 -6z m5101 -13 c10 0 25 -7
33 -16 14 -13 16 -48 16 -228 0 -159 -3 -216 -12 -224 -12 -9 -65 -4 -147 14
l-24 5 6 219 c3 121 9 225 13 231 4 7 23 9 52 5 25 -3 53 -6 63 -6z m-5892
-122 c20 -55 62 -281 53 -290 -10 -10 -370 57 -386 72 -16 16 -38 172 -26 184
11 11 253 52 318 55 25 1 34 -4 41 -21z m8844 -28 c-14 -156 -96 -807 -103
-814 -11 -11 -333 42 -356 58 -13 10 -14 40 -4 254 6 133 13 248 16 254 7 19
417 278 434 275 9 -2 14 -12 13 -27z m-9290 -42 c3 -13 9 -47 13 -75 6 -50 5
-53 -15 -53 -27 0 -382 69 -394 77 -5 3 -5 9 1 15 11 11 277 55 343 57 41 1
48 -2 52 -21z m-364 -228 c222 -43 408 -83 412 -87 4 -4 57 -303 117 -663 84
-500 108 -658 99 -667 -11 -10 -688 -203 -714 -203 -15 0 2 -75 -157 670 -74
344 -153 712 -176 818 -23 106 -39 200 -36 208 4 9 14 13 28 9 13 -3 205 -41
427 -85z m9066 -82 c7 -19 -11 -367 -19 -376 -9 -9 -277 37 -293 50 -17 13
-17 106 0 135 11 21 280 202 300 203 4 0 10 -6 12 -12z m-8355 -58 c91 -17
173 -33 182 -36 22 -7 18 11 143 -583 86 -409 103 -507 93 -517 -18 -17 -384
-117 -403 -110 -8 3 -15 11 -15 18 0 7 -47 290 -104 628 -102 601 -107 646
-73 635 7 -2 86 -18 177 -35z m5206 -262 c-4 -156 -9 -295 -12 -309 -4 -23
-17 -31 -88 -58 -98 -37 -104 -38 -110 -8 -11 51 -45 582 -37 590 10 10 200
65 230 66 l23 1 -6 -282z m414 247 c74 -14 138 -29 143 -34 10 -10 -10 -652
-21 -663 -9 -9 -300 66 -315 81 -11 11 5 611 18 630 9 15 22 14 175 -14z m388
-69 c74 -13 138 -28 142 -32 9 -10 30 -433 30 -609 0 -93 -2 -105 -17 -105
-29 0 -315 78 -326 89 -10 10 7 653 18 671 8 13 -1 14 153 -14z m-5329 -50
c184 -36 278 -59 286 -69 16 -22 91 -745 78 -758 -14 -14 -433 -130 -457 -127
-18 3 -30 49 -123 488 -56 267 -102 493 -103 503 0 11 8 17 23 17 12 0 145
-24 296 -54z m4146 32 c2 -7 14 -145 26 -306 15 -214 18 -297 10 -305 -17 -17
-103 -47 -133 -47 -16 0 -100 14 -188 31 -142 28 -161 34 -165 53 -11 44 -23
451 -14 460 11 12 405 125 437 125 12 1 24 -5 27 -11z m1849 -99 c127 -22 235
-44 240 -49 8 -8 -15 -318 -30 -391 -4 -22 -42 -50 -202 -152 -161 -103 -202
-124 -224 -120 -15 3 -32 10 -37 17 -8 10 -31 514 -31 674 0 60 1 62 26 62 15
0 131 -18 258 -41z m-5261 -78 c164 -32 302 -62 307 -67 4 -5 22 -97 38 -204
23 -148 27 -198 19 -206 -19 -18 -607 -178 -616 -168 -11 11 -83 683 -75 695
8 13 5 14 327 -50z m2828 -66 c10 -129 10 -313 2 -318 -7 -4 -745 137 -832
158 -18 5 -21 9 -12 18 14 14 798 237 821 234 11 -2 17 -23 21 -92z m2829 -68
c0 -124 -1 -133 -21 -145 -13 -8 -25 -10 -31 -4 -10 10 8 234 23 270 19 48 29
8 29 -121z m244 100 c33 -7 61 -17 63 -23 5 -14 -143 -107 -157 -99 -11 7 -14
93 -4 119 7 19 19 19 98 3z m-5357 -73 c24 -3 47 -12 52 -18 5 -6 14 -69 21
-140 10 -106 10 -130 -1 -140 -20 -18 -100 -39 -110 -29 -11 11 -58 314 -51
331 3 8 13 11 26 8 11 -3 40 -8 63 -12z m5805 -17 c7 -11 3 -297 -8 -655 -5
-133 -10 -185 -19 -188 -14 -6 -494 121 -506 133 -12 12 -23 445 -12 459 8 12
319 215 396 259 33 19 44 21 90 13 29 -6 55 -15 59 -21z m-5377 -67 c109 -22
200 -42 203 -44 2 -3 1 -9 -2 -14 -9 -15 -416 -126 -426 -116 -5 5 -12 55 -16
112 l-7 102 25 0 c13 0 114 -18 223 -40z m5790 5 c76 -14 144 -30 149 -35 13
-13 -21 -870 -35 -887 -12 -14 -297 58 -310 78 -4 7 -5 42 -3 78 3 36 13 225
24 418 16 303 22 373 33 373 1 0 65 -11 142 -25z m459 -80 c198 -35 186 -31
186 -63 1 -68 -84 -739 -96 -758 -7 -12 -38 -43 -69 -69 l-56 -48 -76 19 c-97
24 -106 32 -99 98 3 28 8 121 11 206 11 303 26 615 30 628 6 16 4 16 169 -13z
m-5569 -69 c13 -17 79 -716 68 -727 -11 -11 -850 -279 -874 -279 -11 0 -19 4
-19 8 0 5 -16 181 -35 392 -21 230 -31 388 -25 394 4 4 188 59 407 122 401
113 452 123 478 90z m6190 -41 c76 -13 143 -29 149 -35 8 -8 -38 -58 -159
-176 -93 -90 -178 -169 -187 -174 -16 -10 -18 -5 -18 53 0 70 19 324 25 345 6
17 32 15 190 -13z m-6024 -2 c0 -10 2 -52 5 -93 7 -104 -12 -79 -22 28 -5 58
-3 82 5 82 6 0 11 -8 12 -17z m575 -93 c225 -44 418 -84 430 -89 26 -11 40
-79 21 -98 -29 -29 -854 -328 -857 -310 -6 33 -37 563 -34 569 3 4 11 8 18 8
8 0 197 -36 422 -80z m3268 -16 c3 -9 6 -78 6 -155 0 -110 -3 -141 -14 -145
-16 -6 -93 13 -100 25 -5 7 10 180 20 227 2 12 19 31 36 43 40 25 44 25 52 5z
m-5019 -106 c3 -7 21 -186 40 -397 25 -279 31 -389 23 -398 -6 -7 -21 -13 -33
-13 -17 0 -25 7 -29 28 -22 105 -115 757 -109 763 8 8 69 27 91 28 7 1 15 -5
17 -11z m3388 -5 c17 -10 5 -23 -20 -23 -35 0 -58 14 -49 29 6 10 47 6 69 -6z
m1409 -69 c-1 -26 -6 -52 -11 -57 -10 -10 -107 9 -115 22 -3 4 -2 11 2 17 12
17 107 74 117 70 6 -2 9 -25 7 -52z m2588 9 c1 -52 -94 -720 -104 -730 -8 -8
-50 -1 -168 31 -87 23 -160 45 -164 49 -4 3 -3 64 0 134 l7 128 206 203 c114
111 211 202 215 202 4 0 8 -8 8 -17z m-7626 -1 c8 -14 117 -751 114 -774 -3
-19 -41 -34 -328 -125 -178 -56 -327 -100 -331 -95 -4 4 -17 95 -28 202 -12
107 -30 275 -41 373 -11 97 -20 195 -20 217 0 37 2 40 38 50 216 63 561 159
574 159 9 1 19 -3 22 -7z m3284 -68 c34 -10 26 -29 -18 -44 -43 -14 -47 -13
-50 10 -6 40 11 49 68 34z m-204 -40 c15 -40 6 -73 -24 -89 -29 -15 -35 -14
-100 7 -39 12 -70 27 -70 33 0 11 138 62 171 64 9 1 20 -6 23 -15z m671 -52
c127 -26 230 -51 230 -57 0 -15 -327 -185 -355 -184 -14 1 -108 29 -210 62
-175 59 -185 63 -188 89 -2 19 3 30 20 39 49 27 234 98 253 98 11 0 124 -21
250 -47z m-4447 -455 c31 -293 41 -412 33 -421 -6 -7 -36 -19 -66 -26 -54 -13
-58 -12 -196 30 -77 24 -142 47 -144 51 -7 10 -135 620 -135 641 0 13 14 21
53 32 28 8 122 35 207 60 85 25 166 44 180 43 l25 -2 43 -408z m5452 376 c30
-10 55 -22 54 -28 -1 -12 -162 -115 -179 -115 -13 0 -28 130 -18 157 7 18 58
13 143 -14z m2327 5 c-3 -8 -6 -5 -6 6 -1 11 2 17 5 13 3 -3 4 -12 1 -19z
m-4338 -13 c45 -14 81 -30 81 -36 0 -5 -21 -19 -46 -29 l-46 -20 -86 26 c-48
14 -93 28 -100 30 -23 7 -3 23 46 38 63 19 59 20 151 -9z m1551 -21 c41 -8 78
-18 81 -22 4 -4 9 -61 10 -126 l4 -120 -61 -38 -60 -38 -230 73 c-148 48 -230
78 -231 88 -4 19 341 198 382 198 17 1 64 -6 105 -15z m961 -116 c5 -7 9 -129
9 -271 0 -210 -3 -259 -14 -263 -14 -5 -604 181 -619 195 -4 4 -6 50 -5 102
l3 93 80 50 c44 27 126 78 183 112 l103 62 126 -33 c69 -18 129 -39 134 -47z
m-2225 46 c110 -37 95 -69 -37 -80 -73 -5 -90 -4 -112 11 -15 9 -27 22 -27 27
0 9 95 56 116 57 6 1 33 -6 60 -15z m-4371 -56 c24 -107 105 -503 105 -519 0
-10 -3 -19 -7 -19 -19 0 -470 144 -480 154 -14 13 -60 282 -50 292 10 10 369
112 399 113 21 1 29 -5 33 -21z m6992 -84 c114 -30 211 -58 215 -60 5 -3 5
-10 2 -16 -12 -19 -446 -298 -455 -293 -5 4 -9 98 -9 216 0 200 1 209 19 209
11 0 113 -25 228 -56z m-2197 -4 c0 -5 -5 -10 -11 -10 -5 0 -7 5 -4 10 3 6 8
10 11 10 2 0 4 -4 4 -10z m-5311 -52 c16 -42 35 -198 25 -207 -10 -10 -368 99
-386 117 -8 8 -7 13 6 18 37 14 312 92 329 93 10 1 21 -9 26 -21z m8926 2 c3
-5 3 -26 -1 -45 -8 -46 -40 -46 -37 0 4 50 22 72 38 45z m-3183 -81 c120 -39
220 -74 223 -78 2 -5 -3 -15 -13 -23 -27 -23 -432 -270 -451 -275 -15 -4 -19
9 -29 84 -12 88 -44 199 -76 261 -9 17 -16 38 -16 46 0 22 89 67 120 60 14 -3
123 -37 242 -75z m2406 -36 l172 -46 0 -83 0 -82 -170 -163 c-93 -90 -175
-166 -183 -170 -7 -4 -24 -2 -38 4 l-24 13 4 284 c2 157 6 289 8 293 6 10 3
11 231 -50z m-3864 37 c81 -13 166 -39 166 -50 0 -5 -13 -17 -30 -27 -16 -9
-30 -22 -30 -27 0 -5 19 -38 42 -73 23 -37 37 -68 32 -72 -12 -12 -504 158
-504 174 0 7 39 29 88 48 93 39 137 43 236 27z m3496 -269 c0 -197 -5 -251
-24 -251 -6 0 -105 30 -219 67 -144 46 -207 71 -205 80 3 15 416 293 436 293
9 0 12 -44 12 -189z m-8101 63 c207 -63 381 -121 386 -128 16 -21 78 -417 67
-428 -17 -17 -664 -220 -672 -211 -8 8 -190 841 -190 869 0 8 7 14 17 14 9 0
185 -52 392 -116z m3385 97 c5 -8 -203 -193 -279 -249 l-30 -22 -55 20 c-30
11 -74 28 -97 36 -24 9 -43 21 -43 28 0 6 109 53 243 103 268 101 254 96 261
84z m3133 -38 c38 -12 55 -23 58 -37 4 -22 25 -545 25 -633 0 -44 -3 -53 -18
-53 -10 0 -193 60 -407 134 -364 125 -390 135 -393 158 -2 14 4 31 13 38 17
14 658 409 664 410 2 0 28 -8 58 -17z m-2211 -87 c363 -123 375 -128 371 -139
-2 -6 -149 -86 -326 -178 -274 -142 -327 -166 -349 -159 -57 17 -165 59 -173
67 -10 10 -33 324 -27 364 2 19 22 31 118 70 63 26 127 48 141 48 15 1 125
-32 245 -73z m664 54 c26 -26 25 -37 -2 -51 -18 -10 -24 -8 -39 12 -22 28 -24
45 -6 52 21 9 26 8 47 -13z m4180 -38 c59 -17 65 -21 68 -48 2 -16 -4 -137
-13 -269 -14 -204 -20 -245 -37 -273 -11 -18 -27 -36 -36 -41 -12 -5 -77 11
-201 51 l-184 59 5 117 6 116 158 152 c88 84 161 153 164 153 3 1 34 -7 70
-17z m-2080 -106 c128 -41 237 -79 242 -84 13 -13 -15 -33 -268 -198 -106 -69
-200 -124 -207 -121 -11 4 -15 47 -20 179 -10 260 -9 298 7 298 7 0 118 -33
246 -74z m2391 22 c44 -11 79 -27 79 -33 0 -21 -201 -265 -212 -259 -10 6 -7
112 9 257 7 67 7 68 124 35z m-5783 -178 c3 -88 2 -110 -9 -109 -34 2 -184 66
-186 79 -3 22 168 163 181 150 6 -6 12 -60 14 -120z m-2943 46 c248 -76 269
-87 263 -136 -3 -23 -19 -29 -213 -92 -115 -37 -218 -68 -227 -68 -20 0 -19
-4 -53 197 -23 131 -25 173 -11 173 2 0 110 -33 241 -74z m2071 14 c76 -27
139 -50 141 -50 2 0 3 -7 3 -15 0 -9 -19 -28 -43 -43 -64 -40 -236 -107 -247
-96 -11 11 -33 231 -25 245 10 15 27 11 171 -41z m2086 -14 c46 -19 82 -77
117 -184 16 -48 43 -111 60 -140 17 -29 31 -57 31 -61 0 -5 -65 -48 -144 -96
l-144 -87 -298 107 c-165 59 -305 110 -311 112 -7 3 -13 11 -13 18 0 13 623
342 651 344 9 0 32 -5 51 -13z m-2377 -8 c2 -7 9 -62 15 -123 8 -86 7 -112 -2
-121 -7 -6 -49 -26 -93 -44 l-80 -32 -185 57 c-102 32 -189 61 -193 65 -5 4
-3 12 5 16 19 13 500 193 516 193 7 1 15 -5 17 -11z m5326 -129 c123 -39 230
-76 237 -81 7 -6 12 -34 12 -68 l0 -58 -225 -218 c-123 -120 -232 -222 -240
-227 -10 -5 -21 -4 -31 3 -12 11 -14 70 -14 366 0 337 1 354 18 354 11 0 120
-32 243 -71z m-403 -267 c2 -250 0 -314 -11 -318 -16 -6 -567 182 -586 201
-34 33 -7 56 281 247 156 103 290 186 298 185 13 -2 15 -46 18 -315z m-3920
162 c86 -31 163 -60 170 -66 7 -7 12 -36 12 -78 l0 -68 -174 -91 -175 -90
-187 57 c-103 32 -189 63 -191 69 -2 6 60 65 139 131 79 66 161 136 183 155
22 20 46 36 53 37 7 0 83 -25 170 -56z m5102 2 c0 -3 -4 -8 -10 -11 -5 -3 -10
-1 -10 4 0 6 5 11 10 11 6 0 10 -2 10 -4z m-6783 -101 c232 -72 243 -76 243
-90 0 -8 -15 -17 -33 -20 -26 -5 -69 8 -201 58 -92 36 -170 68 -173 70 -5 6 5
27 12 27 3 0 71 -20 152 -45z m4267 -74 c191 -66 350 -122 354 -125 10 -11
-15 -29 -306 -220 l-283 -185 -154 54 c-180 63 -195 70 -195 93 0 9 -5 61 -10
114 -5 54 -7 104 -4 111 2 7 20 19 38 25 46 17 121 100 154 170 34 70 41 82
51 82 5 0 164 -54 355 -119z m-3556 51 c2 -7 -6 -12 -17 -12 -21 0 -27 11 -14
24 9 9 26 2 31 -12z m6007 -1 l50 -18 -3 -204 c-5 -307 -16 -507 -29 -520 -15
-15 -350 96 -361 120 -4 9 -5 99 -2 200 l5 184 135 129 c74 70 140 128 145
127 6 0 33 -9 60 -18z m-7053 -47 c24 -9 49 -23 57 -29 20 -19 36 -184 19
-200 -7 -6 -210 -92 -451 -190 -341 -139 -443 -176 -455 -168 -12 7 -23 50
-40 149 -22 134 -22 140 -5 153 27 20 774 299 805 300 15 1 47 -6 70 -15z
m2820 -118 c356 -127 328 -116 328 -130 0 -9 -287 -192 -374 -237 -30 -16 -36
-15 -216 41 -155 48 -187 61 -196 81 -7 13 -15 79 -19 146 -7 120 -6 122 17
136 57 36 144 77 155 72 7 -2 144 -51 305 -109z m4579 52 c87 -27 129 -46 129
-56 0 -8 -55 -82 -122 -166 -148 -184 -170 -208 -180 -198 -7 7 9 424 17 450
6 18 15 16 156 -30z m-6560 -19 c54 -17 99 -36 99 -42 -1 -18 -36 -57 -51 -57
-21 0 -203 72 -218 86 -12 11 -9 15 20 28 45 19 38 20 150 -15z m2884 5 c14
-9 51 -24 82 -34 55 -17 58 -20 65 -56 10 -54 10 -184 0 -184 -4 0 -93 31
-197 69 -118 42 -190 73 -190 82 0 12 189 138 208 139 4 0 19 -7 32 -16z
m-3457 -24 c48 -22 47 -33 -5 -55 -57 -24 -70 -20 -76 23 -2 20 -2 40 0 45 7
12 36 8 81 -13z m1946 -76 c9 -23 7 -142 -2 -148 -14 -9 -187 49 -187 63 0 12
146 97 171 100 7 0 15 -6 18 -15z m-1600 -55 c89 -33 165 -65 170 -70 6 -5 -8
-30 -33 -61 -91 -116 -302 -399 -372 -500 -41 -59 -80 -107 -86 -108 -7 0 -13
1 -14 3 -5 15 -75 685 -72 693 4 10 216 103 237 104 6 0 82 -27 170 -61z
m4497 -70 c4 -46 9 -175 13 -286 6 -195 6 -203 -12 -203 -34 0 -567 196 -567
209 0 14 535 371 550 367 6 -1 13 -40 16 -87z m-3631 22 c75 -24 126 -45 128
-53 3 -14 -103 -71 -130 -71 -7 0 -59 17 -115 38 -71 26 -103 42 -103 53 0 23
51 72 74 72 12 0 77 -18 146 -39z m4175 -79 l280 -97 3 -51 3 -51 -198 -192
c-223 -216 -202 -206 -319 -159 l-59 23 -6 90 c-4 50 -10 190 -14 313 -7 213
-6 222 11 221 11 0 145 -44 299 -97z m-2035 -41 c140 -51 260 -97 267 -104 7
-7 17 -75 24 -165 13 -163 11 -175 -33 -174 -40 1 -953 289 -953 301 0 6 87
65 193 130 167 103 198 118 220 111 15 -4 142 -49 282 -99z m-4587 66 c9 -24
31 -197 25 -202 -9 -9 -289 106 -285 118 3 11 211 94 238 96 9 1 19 -5 22 -12z
m1072 -19 c6 -38 65 -591 65 -613 0 -8 -8 -15 -17 -15 -36 1 -828 327 -828
341 0 14 721 317 757 318 12 1 19 -9 23 -31z m6475 -75 c0 -105 -4 -110 -71
-88 -88 29 -88 30 -17 102 34 35 68 63 75 63 10 0 13 -21 13 -77z m-4566 -17
c115 -36 213 -71 217 -78 5 -7 10 -39 11 -70 1 -32 2 -66 2 -75 1 -11 -7 -19
-19 -20 -31 -4 -580 211 -583 228 -3 16 109 77 143 78 11 1 114 -28 229 -63z
m-729 -47 c12 -12 -20 -39 -47 -39 -13 0 -18 8 -18 31 0 29 2 31 28 24 15 -3
32 -11 37 -16z m-182 -61 c7 -48 1 -56 -64 -88 -66 -34 -69 -35 -69 -19 0 18
110 150 119 144 5 -2 11 -19 14 -37z m709 -137 c205 -79 363 -145 363 -152 0
-17 -854 -541 -871 -535 -8 3 -14 15 -14 26 0 22 -46 553 -55 630 -2 25 -1 50
3 56 7 11 191 114 204 114 3 0 170 -63 370 -139z m672 99 c28 -9 51 -21 53
-27 4 -11 -120 -93 -141 -93 -20 0 -37 126 -20 143 8 7 37 1 108 -23z m1669 0
c31 -12 57 -27 57 -33 0 -15 -148 -112 -157 -103 -9 9 -22 148 -16 160 7 10
44 3 116 -24z m2296 -41 l124 -42 -6 -310 c-4 -171 -10 -314 -15 -319 -10 -10
-453 148 -464 165 -4 7 -8 81 -8 166 l0 154 112 114 c62 62 117 113 122 113 6
0 67 -19 135 -41z m-3304 -164 c529 -163 535 -165 535 -178 0 -11 -216 -159
-251 -172 -13 -5 -841 304 -901 336 -18 10 -19 13 -5 26 26 26 189 122 201
118 6 -2 196 -61 421 -130z m1618 -14 c197 -71 361 -132 365 -136 7 -7 20
-258 14 -275 -2 -6 -10 -10 -17 -10 -7 0 -246 72 -529 160 -284 88 -519 160
-522 160 -3 0 -4 7 -2 15 4 18 296 215 318 215 8 0 176 -58 373 -129z m-3641
28 c4 -24 16 -156 28 -294 11 -137 23 -260 25 -271 11 -48 -15 -44 -230 42
-308 122 -335 135 -335 151 0 8 28 53 61 101 117 166 118 166 278 247 80 41
150 73 156 71 5 -1 13 -22 17 -47z m5728 12 c83 -27 115 -43 114 -54 -2 -22
-244 -319 -258 -314 -8 3 -10 59 -7 198 2 107 5 197 8 202 7 12 25 8 143 -32z
m-4025 -307 c225 -86 416 -162 424 -169 15 -15 44 5 -441 -313 -186 -122 -342
-222 -348 -222 -5 0 -12 10 -14 23 -7 37 -54 821 -49 830 2 4 7 7 11 7 4 0
191 -70 417 -156z m-561 104 c4 -20 57 -820 56 -855 0 -7 -8 -13 -17 -13 -30
1 -898 354 -897 365 1 11 822 523 841 524 7 1 15 -9 17 -21z m3676 -51 c0 -30
-3 -56 -6 -60 -8 -8 -77 18 -82 31 -3 11 66 82 81 82 4 0 7 -24 7 -53z m-2013
-20 c6 -6 16 -64 22 -127 14 -150 14 -180 -1 -180 -7 0 -67 21 -133 46 -66 25
-144 55 -172 66 -29 10 -53 24 -53 29 0 5 60 49 133 99 111 75 137 89 162 85
16 -3 35 -11 42 -18z m1493 -12 c0 -7 -32 -35 -41 -35 -10 0 -13 43 -3 53 6 6
44 -9 44 -18z m-803 -196 c285 -88 521 -164 526 -168 4 -4 10 -31 14 -59 l6
-52 -98 -100 c-58 -59 -107 -100 -118 -100 -24 0 -827 306 -842 321 -10 10
-34 288 -27 309 2 5 7 10 12 10 5 0 242 -72 527 -161z m1208 61 c49 -17 95
-34 102 -38 9 -6 12 -112 13 -417 1 -226 -1 -418 -5 -427 -4 -9 -14 -19 -23
-23 -15 -6 -485 167 -506 186 -5 4 -12 97 -17 206 l-8 198 172 173 c94 94 174
172 177 172 3 0 45 -14 95 -30z m459 -165 c98 -35 181 -67 184 -69 2 -3 2 -11
-1 -18 -8 -20 -357 -428 -366 -428 -13 0 -21 138 -21 351 0 188 3 229 19 229
4 0 87 -29 185 -65z m-2590 -55 c143 -55 265 -105 272 -112 8 -9 24 -182 48
-498 20 -267 36 -491 36 -499 0 -8 -8 -12 -22 -9 -40 8 -1492 590 -1507 604
-12 10 41 49 325 236 186 123 391 258 454 300 63 42 120 77 125 77 6 0 127
-44 269 -99z m796 -304 c199 -76 326 -130 328 -139 3 -15 -599 -610 -623 -615
-9 -2 -16 8 -19 30 -11 69 -65 841 -60 850 9 14 15 11 374 -126z m676 -50 c3
-14 3 -30 -1 -35 -9 -16 -41 -13 -55 4 -10 13 -10 19 5 35 24 27 43 25 51 -4z
m-5429 -82 c2 -6 -5 -21 -15 -34 l-19 -24 -94 19 c-74 14 -121 17 -219 12
l-125 -6 28 25 29 24 205 -2 c139 -2 208 -7 210 -14z m5348 -97 c75 -30 80
-34 87 -67 8 -39 36 -948 30 -967 -2 -7 -9 -13 -15 -13 -6 0 -217 82 -469 183
-360 143 -458 186 -456 198 2 9 160 170 351 358 244 239 355 341 370 341 12 0
58 -15 102 -33z m516 -197 c100 -38 187 -74 192 -79 7 -7 -5 -28 -35 -63 -25
-29 -105 -123 -177 -208 -73 -85 -137 -155 -144 -155 -9 0 -15 73 -23 275 -10
247 -9 300 1 300 2 0 86 -31 186 -70z m508 -2359 c8 -5 11 -16 8 -26 -7 -17
-38 -14 -65 8 -25 20 27 37 57 18z"/>
</g>
</svg>
