<svg version="1.1" xmlns="http://www.w3.org/2000/svg" xmlns:xlink="http://www.w3.org/1999/xlink" width="502.265px" height="502.265px" viewBox="0,0,256,256"><g fill="#377280" fill-rule="nonzero" stroke="none" stroke-width="1" stroke-linecap="butt" stroke-linejoin="miter" stroke-miterlimit="10" stroke-dasharray="" stroke-dashoffset="0" font-family="none" font-weight="none" font-size="none" text-anchor="none" style="mix-blend-mode: normal"><g transform="translate(-0.00019,0.00019) scale(0.50969,0.50969)"><g><g><path d="M210.571,157.605c6.141,2.332 12.695,3.519 19.261,3.519c15.423,0 30.349,-6.722 40.583,-18.257c10.333,-11.646 15.185,-27.456 13.22,-42.897c-1.928,-15.145 -10.402,-29.01 -22.944,-37.701c-12.846,-8.904 -29.284,-11.814 -44.421,-7.919c-14.697,3.782 -27.373,13.846 -34.45,27.261c-7.301,13.844 -8.211,30.61 -2.465,45.169c5.555,14.085 17.059,25.447 31.216,30.825z"></path><path d="M265.85,440.904c0.008,-0.005 0.01,-0.011 0.01,-0.017c-0.006,0.01 -0.016,0.021 -0.022,0.03c-0.015,0.021 -0.027,0.043 -0.041,0.064c0.014,-0.025 0.036,-0.052 0.053,-0.077z"></path><path d="M364.256,52.666c-0.3,-0.208 -0.598,-0.415 -0.871,-0.605c0.248,0.172 0.528,0.366 0.871,0.605z"></path><path d="M363.039,51.819c-0.419,-0.291 -0.721,-0.5 -0.791,-0.55c0.07,0.05 0.321,0.224 0.791,0.55z"></path><path d="M362.248,51.27c-0.029,-0.02 -0.023,-0.016 0,0z"></path><path d="M386.334,72.807l7.967,-9.244c2.139,-2.482 6.307,-3.02 9.307,-1.198l83.064,50.349l15.005,-26.416c1.448,-2.549 0.13,-5.624 -2.942,-6.869l-90.381,-36.579c-3.073,-1.244 -6.737,-0.187 -8.188,2.363l-5.392,9.494l-4.473,-1.81c-8.572,-3.469 -18.094,-3.302 -26.047,-0.232c-0.004,0.001 -0.006,0.002 -0.008,0.003c-7.309,-4.967 -17.267,-3.141 -22.317,4.131c0,0 -50.374,76.801 -67.649,97.369c-12.889,15.347 -25.169,19.631 -43.674,17.073c-9.139,-1.263 -122.367,-29.414 -122.367,-29.414c-6.203,-1.499 -12.636,0.963 -16.451,5.777c-11.094,-1.42 -22.438,3.982 -28.029,14.41l-2.137,3.979l-10.188,-5.466c-2.737,-1.467 -6.143,-0.44 -7.611,2.295l-43.155,80.436c-1.465,2.735 -0.438,6.142 2.297,7.61l28.348,15.208l28.754,-88.63c1.037,-3.204 4.479,-4.957 7.682,-3.918l11.934,3.872l0.475,-1.46l-8.631,-4.63l2.137,-3.979c3.006,-5.604 8.8,-8.749 14.758,-8.688c0.222,2.907 1.219,5.718 2.875,8.111c-2.765,3.053 -4.947,6.718 -6.298,10.883l-1.513,4.662l-11.935,-3.872c-3.202,-1.039 -6.644,0.714 -7.681,3.918l-30.567,94.211c-1.041,3.204 0.715,6.643 3.918,7.682l81.201,26.347c3.203,1.039 6.643,-0.716 7.684,-3.918l30.566,-94.211c1.037,-3.204 -0.717,-6.644 -3.92,-7.683l-11.935,-3.873l1.514,-4.66c0.763,-2.349 1.212,-4.724 1.386,-7.083l77.992,28.706c0.699,2.115 6.722,18.409 10.138,35.461c2.174,10.85 3.097,21.903 3.724,32.939c0.439,7.738 0.32,15.48 0.232,23.227c-0.092,7.981 1.217,15.791 4.379,23.15c-0.271,10.081 -0.791,20.16 -1.647,30.209c-0.938,10.995 -2.662,21.924 -4.46,32.819c-2.271,13.767 -5.828,19.059 -6.066,19.418c-4.408,1.667 -9.742,1.096 -14.307,0.497c-5.449,-0.716 -10.82,-2.003 -16.093,-3.547c-4.634,-1.357 -9.203,-2.929 -13.708,-4.665c-3.58,-1.381 -7.066,-2.958 -10.596,-4.456c-1.643,-0.698 -3.273,-1.468 -5.08,-1.86c-1.855,-0.403 -3.769,-0.533 -5.662,-0.388c-3.749,0.287 -7.391,1.656 -10.395,3.917c-6.275,4.722 -9.178,12.974 -7.262,20.583c1.356,5.385 4.985,10.021 9.892,12.624c15.744,8.608 32.581,15.997 50.175,19.813c9.526,2.067 19.408,3.084 29.107,1.689c10.078,-1.448 19.659,-5.674 26.976,-12.845c1.736,-1.702 3.338,-3.573 4.781,-5.531c0.789,-1.297 1.773,-2.496 2.598,-3.771c1.43,-2.206 2.746,-4.48 3.965,-6.809c2.438,-4.656 4.523,-9.497 6.377,-14.413c3.724,-9.868 6.604,-20.048 9.076,-30.294c1.621,-6.728 3.066,-13.496 4.378,-20.291c2.739,-0.12 5.451,-0.438 8.142,-0.965c4.866,9.944 9.375,20.071 13.201,30.465c-10.245,3.997 -15.259,16.059 -10.9,26.155c2.947,6.836 6.528,13.367 11.558,18.92c5.468,6.036 12.39,10.722 20.289,12.896c4.323,1.19 8.859,1.593 13.296,0.907c8.91,-1.396 16.368,-8.333 17.957,-17.717c3.43,-20.206 0.155,-40.862 -4.486,-60.615c-2.519,-10.701 -5.582,-21.275 -9,-31.724c-2.236,-6.841 -4.558,-13.688 -7.242,-20.369c-0.531,-1.325 -1.041,-2.662 -1.608,-3.974c0.663,-4.44 0.72,-8.896 0.352,-13.365c-0.369,-4.467 -0.675,-8.949 -1.136,-13.408c-1.09,-10.552 -2.562,-21.09 -4.548,-31.511c-4.137,-21.704 -9.954,-43.15 -18.507,-63.556c-2.322,-5.542 -4.818,-11.007 -7.601,-16.335l32.282,-60.463l3.634,2.2l-7.965,9.246c-2.139,2.481 -1.44,5.968 1.563,7.789l88.295,53.52c3.002,1.818 7.171,1.281 9.309,-1.2l54.207,-62.904c2.14,-2.481 1.441,-5.969 -1.563,-7.787l-88.295,-53.52c-3.002,-1.821 -7.17,-1.283 -9.31,1.198l-7.965,9.245l-4.371,-2.648c-3.545,-2.15 -7.428,-3.626 -11.424,-4.47c1.119,-3.181 1.189,-6.583 0.297,-9.739c4.488,-1.439 9.668,-1.391 14.373,0.514l4.474,1.809l-4.568,8.042zM130.731,192.474l-1.514,4.662l-34.131,-11.075l1.51,-4.662c1.002,-3.086 2.775,-5.704 5.025,-7.737l29.814,10.973c0.337,2.558 0.143,5.224 -0.704,7.839zM374.071,84.807l4.367,2.65l-22.782,26.441l-4.369,-2.648c-0.509,-0.308 -0.99,-0.633 -1.451,-0.972l15.213,-28.493c3.151,0.352 6.257,1.346 9.022,3.022z"></path><path d="M363.385,52.06c-0.125,-0.088 -0.242,-0.169 -0.347,-0.241c0.109,0.077 0.226,0.157 0.347,0.241z"></path></g></g><g font-family="Inter, apple-system, BlinkMacSystemFont, &quot;Helvetica Neue&quot;, &quot;Segoe UI&quot;, &quot;Fira Sans&quot;, Roboto, Oxygen, Ubuntu, &quot;Droid Sans&quot;, Arial, sans-serif" font-weight="400" font-size="16" text-anchor="start"></g><g font-family="Inter, apple-system, BlinkMacSystemFont, &quot;Helvetica Neue&quot;, &quot;Segoe UI&quot;, &quot;Fira Sans&quot;, Roboto, Oxygen, Ubuntu, &quot;Droid Sans&quot;, Arial, sans-serif" font-weight="400" font-size="16" text-anchor="start"></g><g font-family="Inter, apple-system, BlinkMacSystemFont, &quot;Helvetica Neue&quot;, &quot;Segoe UI&quot;, &quot;Fira Sans&quot;, Roboto, Oxygen, Ubuntu, &quot;Droid Sans&quot;, Arial, sans-serif" font-weight="400" font-size="16" text-anchor="start"></g><g font-family="Inter, apple-system, BlinkMacSystemFont, &quot;Helvetica Neue&quot;, &quot;Segoe UI&quot;, &quot;Fira Sans&quot;, Roboto, Oxygen, Ubuntu, &quot;Droid Sans&quot;, Arial, sans-serif" font-weight="400" font-size="16" text-anchor="start"></g><g font-family="Inter, apple-system, BlinkMacSystemFont, &quot;Helvetica Neue&quot;, &quot;Segoe UI&quot;, &quot;Fira Sans&quot;, Roboto, Oxygen, Ubuntu, &quot;Droid Sans&quot;, Arial, sans-serif" font-weight="400" font-size="16" text-anchor="start"></g><g font-family="Inter, apple-system, BlinkMacSystemFont, &quot;Helvetica Neue&quot;, &quot;Segoe UI&quot;, &quot;Fira Sans&quot;, Roboto, Oxygen, Ubuntu, &quot;Droid Sans&quot;, Arial, sans-serif" font-weight="400" font-size="16" text-anchor="start"></g><g font-family="Inter, apple-system, BlinkMacSystemFont, &quot;Helvetica Neue&quot;, &quot;Segoe UI&quot;, &quot;Fira Sans&quot;, Roboto, Oxygen, Ubuntu, &quot;Droid Sans&quot;, Arial, sans-serif" font-weight="400" font-size="16" text-anchor="start"></g><g font-family="Inter, apple-system, BlinkMacSystemFont, &quot;Helvetica Neue&quot;, &quot;Segoe UI&quot;, &quot;Fira Sans&quot;, Roboto, Oxygen, Ubuntu, &quot;Droid Sans&quot;, Arial, sans-serif" font-weight="400" font-size="16" text-anchor="start"></g><g font-family="Inter, apple-system, BlinkMacSystemFont, &quot;Helvetica Neue&quot;, &quot;Segoe UI&quot;, &quot;Fira Sans&quot;, Roboto, Oxygen, Ubuntu, &quot;Droid Sans&quot;, Arial, sans-serif" font-weight="400" font-size="16" text-anchor="start"></g><g font-family="Inter, apple-system, BlinkMacSystemFont, &quot;Helvetica Neue&quot;, &quot;Segoe UI&quot;, &quot;Fira Sans&quot;, Roboto, Oxygen, Ubuntu, &quot;Droid Sans&quot;, Arial, sans-serif" font-weight="400" font-size="16" text-anchor="start"></g><g font-family="Inter, apple-system, BlinkMacSystemFont, &quot;Helvetica Neue&quot;, &quot;Segoe UI&quot;, &quot;Fira Sans&quot;, Roboto, Oxygen, Ubuntu, &quot;Droid Sans&quot;, Arial, sans-serif" font-weight="400" font-size="16" text-anchor="start"></g><g font-family="Inter, apple-system, BlinkMacSystemFont, &quot;Helvetica Neue&quot;, &quot;Segoe UI&quot;, &quot;Fira Sans&quot;, Roboto, Oxygen, Ubuntu, &quot;Droid Sans&quot;, Arial, sans-serif" font-weight="400" font-size="16" text-anchor="start"></g><g font-family="Inter, apple-system, BlinkMacSystemFont, &quot;Helvetica Neue&quot;, &quot;Segoe UI&quot;, &quot;Fira Sans&quot;, Roboto, Oxygen, Ubuntu, &quot;Droid Sans&quot;, Arial, sans-serif" font-weight="400" font-size="16" text-anchor="start"></g><g font-family="Inter, apple-system, BlinkMacSystemFont, &quot;Helvetica Neue&quot;, &quot;Segoe UI&quot;, &quot;Fira Sans&quot;, Roboto, Oxygen, Ubuntu, &quot;Droid Sans&quot;, Arial, sans-serif" font-weight="400" font-size="16" text-anchor="start"></g><g font-family="Inter, apple-system, BlinkMacSystemFont, &quot;Helvetica Neue&quot;, &quot;Segoe UI&quot;, &quot;Fira Sans&quot;, Roboto, Oxygen, Ubuntu, &quot;Droid Sans&quot;, Arial, sans-serif" font-weight="400" font-size="16" text-anchor="start"></g></g></g></svg>